<svg width="72" height="72" viewBox="0 0 72 72" fill="none" xmlns="http://www.w3.org/2000/svg">
<path d="M1.37044 36C1.37044 54.9284 16.6342 70.3577 35.5 70.626V70.6304H36C55.0953 70.6304 70.6296 55.0961 70.6296 36.0008C70.6296 16.9055 55.0961 1.37122 36 1.37122C16.9039 1.37122 1.37044 16.9046 1.37044 36ZM0.5 36C0.5 16.4258 16.4258 0.5 36 0.5C55.5742 0.5 71.5 16.4258 71.5 36C71.5 55.5742 55.5742 71.5 36 71.5C16.4258 71.5 0.5 55.5742 0.5 36Z" fill="#F1F2F2" stroke="url(#paint0_linear_2025_1232)"/>
<g clip-path="url(#clip0_2025_1232)">
<path d="M20.9583 28.0834H17" stroke="url(#paint1_linear_2025_1232)" stroke-width="2" stroke-miterlimit="10"/>
<path d="M20.9583 32.0416H17" stroke="url(#paint2_linear_2025_1232)" stroke-width="2" stroke-miterlimit="10"/>
<path d="M20.9583 36H17" stroke="url(#paint3_linear_2025_1232)" stroke-width="2" stroke-miterlimit="10"/>
<path d="M20.9583 39.9584H17" stroke="url(#paint4_linear_2025_1232)" stroke-width="2" stroke-miterlimit="10"/>
<path d="M20.9583 43.9166H17" stroke="url(#paint5_linear_2025_1232)" stroke-width="2" stroke-miterlimit="10"/>
<path d="M55.0003 28.0834H51.042" stroke="url(#paint6_linear_2025_1232)" stroke-width="2" stroke-miterlimit="10"/>
<path d="M55.0003 32.0416H51.042" stroke="url(#paint7_linear_2025_1232)" stroke-width="2" stroke-miterlimit="10"/>
<path d="M55.0003 36H51.042" stroke="url(#paint8_linear_2025_1232)" stroke-width="2" stroke-miterlimit="10"/>
<path d="M55.0003 39.9584H51.042" stroke="url(#paint9_linear_2025_1232)" stroke-width="2" stroke-miterlimit="10"/>
<path d="M55.0003 43.9166H51.042" stroke="url(#paint10_linear_2025_1232)" stroke-width="2" stroke-miterlimit="10"/>
<path d="M43.917 20.9583V17" stroke="url(#paint11_linear_2025_1232)" stroke-width="2" stroke-miterlimit="10"/>
<path d="M39.958 20.9583V17" stroke="url(#paint12_linear_2025_1232)" stroke-width="2" stroke-miterlimit="10"/>
<path d="M36 20.9583V17" stroke="url(#paint13_linear_2025_1232)" stroke-width="2" stroke-miterlimit="10"/>
<path d="M32.042 20.9583V17" stroke="url(#paint14_linear_2025_1232)" stroke-width="2" stroke-miterlimit="10"/>
<path d="M28.083 20.9583V17" stroke="url(#paint15_linear_2025_1232)" stroke-width="2" stroke-miterlimit="10"/>
<path d="M43.917 55V51.0416" stroke="url(#paint16_linear_2025_1232)" stroke-width="2" stroke-miterlimit="10"/>
<path d="M39.958 55V51.0416" stroke="url(#paint17_linear_2025_1232)" stroke-width="2" stroke-miterlimit="10"/>
<path d="M36 55V51.0416" stroke="url(#paint18_linear_2025_1232)" stroke-width="2" stroke-miterlimit="10"/>
<path d="M32.042 55V51.0416" stroke="url(#paint19_linear_2025_1232)" stroke-width="2" stroke-miterlimit="10"/>
<path d="M28.083 55V51.0416" stroke="url(#paint20_linear_2025_1232)" stroke-width="2" stroke-miterlimit="10"/>
<path d="M40.75 31.25H31.25V40.75H40.75V31.25Z" stroke="url(#paint21_linear_2025_1232)" stroke-width="2" stroke-miterlimit="10"/>
<path d="M28.083 32.0416V33.625" stroke="url(#paint22_linear_2025_1232)" stroke-width="2" stroke-miterlimit="10"/>
<path d="M28.083 38.375V39.9583" stroke="url(#paint23_linear_2025_1232)" stroke-width="2" stroke-miterlimit="10"/>
<path d="M28.083 35.2084V36.7917" stroke="url(#paint24_linear_2025_1232)" stroke-width="2" stroke-miterlimit="10"/>
<path d="M43.917 32.0416V33.625" stroke="url(#paint25_linear_2025_1232)" stroke-width="2" stroke-miterlimit="10"/>
<path d="M43.917 38.375V39.9583" stroke="url(#paint26_linear_2025_1232)" stroke-width="2" stroke-miterlimit="10"/>
<path d="M43.917 35.2084V36.7917" stroke="url(#paint27_linear_2025_1232)" stroke-width="2" stroke-miterlimit="10"/>
<path d="M48.6663 23.3334H23.333V48.6667H48.6663V23.3334Z" stroke="url(#paint28_linear_2025_1232)" stroke-width="2" stroke-miterlimit="10"/>
<path d="M32.042 28.0834H33.6253" stroke="url(#paint29_linear_2025_1232)" stroke-width="2" stroke-miterlimit="10"/>
<path d="M35.208 28.0834H36.7913" stroke="url(#paint30_linear_2025_1232)" stroke-width="2" stroke-miterlimit="10"/>
<path d="M38.375 28.0834H39.9583" stroke="url(#paint31_linear_2025_1232)" stroke-width="2" stroke-miterlimit="10"/>
<path d="M32.042 43.9166H33.6253" stroke="url(#paint32_linear_2025_1232)" stroke-width="2" stroke-miterlimit="10"/>
<path d="M35.208 43.9166H36.7913" stroke="url(#paint33_linear_2025_1232)" stroke-width="2" stroke-miterlimit="10"/>
<path d="M38.375 43.9166H39.9583" stroke="url(#paint34_linear_2025_1232)" stroke-width="2" stroke-miterlimit="10"/>
</g>
<defs>
<linearGradient id="paint0_linear_2025_1232" x1="-2.30193e-08" y1="36.313" x2="61.6667" y2="-14.5" gradientUnits="userSpaceOnUse">
<stop offset="0.145833" stop-color="#CB9636"/>
<stop offset="0.265625" stop-color="#CFA855"/>
<stop offset="0.427083" stop-color="#FCE4A7"/>
<stop offset="0.578125" stop-color="#F0D592"/>
<stop offset="0.713542" stop-color="#CFA855"/>
<stop offset="0.828125" stop-color="#CB9636"/>
</linearGradient>
<linearGradient id="paint1_linear_2025_1232" x1="16.9058" y1="29.0834" x2="20.7541" y2="29.0834" gradientUnits="userSpaceOnUse">
<stop stop-color="#D2B15E"/>
<stop offset="1" stop-color="#CB9636"/>
</linearGradient>
<linearGradient id="paint2_linear_2025_1232" x1="16.9058" y1="33.0416" x2="20.7541" y2="33.0416" gradientUnits="userSpaceOnUse">
<stop stop-color="#D2B15E"/>
<stop offset="1" stop-color="#CB9636"/>
</linearGradient>
<linearGradient id="paint3_linear_2025_1232" x1="16.9058" y1="37" x2="20.7541" y2="37" gradientUnits="userSpaceOnUse">
<stop stop-color="#D2B15E"/>
<stop offset="1" stop-color="#CB9636"/>
</linearGradient>
<linearGradient id="paint4_linear_2025_1232" x1="16.9058" y1="40.9584" x2="20.7541" y2="40.9584" gradientUnits="userSpaceOnUse">
<stop stop-color="#D2B15E"/>
<stop offset="1" stop-color="#CB9636"/>
</linearGradient>
<linearGradient id="paint5_linear_2025_1232" x1="16.9058" y1="44.9166" x2="20.7541" y2="44.9166" gradientUnits="userSpaceOnUse">
<stop stop-color="#D2B15E"/>
<stop offset="1" stop-color="#CB9636"/>
</linearGradient>
<linearGradient id="paint6_linear_2025_1232" x1="50.9477" y1="29.0834" x2="54.7961" y2="29.0834" gradientUnits="userSpaceOnUse">
<stop stop-color="#D2B15E"/>
<stop offset="1" stop-color="#CB9636"/>
</linearGradient>
<linearGradient id="paint7_linear_2025_1232" x1="50.9477" y1="33.0416" x2="54.7961" y2="33.0416" gradientUnits="userSpaceOnUse">
<stop stop-color="#D2B15E"/>
<stop offset="1" stop-color="#CB9636"/>
</linearGradient>
<linearGradient id="paint8_linear_2025_1232" x1="50.9477" y1="37" x2="54.7961" y2="37" gradientUnits="userSpaceOnUse">
<stop stop-color="#D2B15E"/>
<stop offset="1" stop-color="#CB9636"/>
</linearGradient>
<linearGradient id="paint9_linear_2025_1232" x1="50.9477" y1="40.9584" x2="54.7961" y2="40.9584" gradientUnits="userSpaceOnUse">
<stop stop-color="#D2B15E"/>
<stop offset="1" stop-color="#CB9636"/>
</linearGradient>
<linearGradient id="paint10_linear_2025_1232" x1="50.9477" y1="44.9166" x2="54.7961" y2="44.9166" gradientUnits="userSpaceOnUse">
<stop stop-color="#D2B15E"/>
<stop offset="1" stop-color="#CB9636"/>
</linearGradient>
<linearGradient id="paint11_linear_2025_1232" x1="43.8932" y1="20.9583" x2="44.8654" y2="20.9583" gradientUnits="userSpaceOnUse">
<stop stop-color="#D2B15E"/>
<stop offset="1" stop-color="#CB9636"/>
</linearGradient>
<linearGradient id="paint12_linear_2025_1232" x1="39.9342" y1="20.9583" x2="40.9064" y2="20.9583" gradientUnits="userSpaceOnUse">
<stop stop-color="#D2B15E"/>
<stop offset="1" stop-color="#CB9636"/>
</linearGradient>
<linearGradient id="paint13_linear_2025_1232" x1="35.9762" y1="20.9583" x2="36.9484" y2="20.9583" gradientUnits="userSpaceOnUse">
<stop stop-color="#D2B15E"/>
<stop offset="1" stop-color="#CB9636"/>
</linearGradient>
<linearGradient id="paint14_linear_2025_1232" x1="32.0182" y1="20.9583" x2="32.9904" y2="20.9583" gradientUnits="userSpaceOnUse">
<stop stop-color="#D2B15E"/>
<stop offset="1" stop-color="#CB9636"/>
</linearGradient>
<linearGradient id="paint15_linear_2025_1232" x1="28.0592" y1="20.9583" x2="29.0314" y2="20.9583" gradientUnits="userSpaceOnUse">
<stop stop-color="#D2B15E"/>
<stop offset="1" stop-color="#CB9636"/>
</linearGradient>
<linearGradient id="paint16_linear_2025_1232" x1="43.8932" y1="55" x2="44.8654" y2="55" gradientUnits="userSpaceOnUse">
<stop stop-color="#D2B15E"/>
<stop offset="1" stop-color="#CB9636"/>
</linearGradient>
<linearGradient id="paint17_linear_2025_1232" x1="39.9342" y1="55" x2="40.9064" y2="55" gradientUnits="userSpaceOnUse">
<stop stop-color="#D2B15E"/>
<stop offset="1" stop-color="#CB9636"/>
</linearGradient>
<linearGradient id="paint18_linear_2025_1232" x1="35.9762" y1="55" x2="36.9484" y2="55" gradientUnits="userSpaceOnUse">
<stop stop-color="#D2B15E"/>
<stop offset="1" stop-color="#CB9636"/>
</linearGradient>
<linearGradient id="paint19_linear_2025_1232" x1="32.0182" y1="55" x2="32.9904" y2="55" gradientUnits="userSpaceOnUse">
<stop stop-color="#D2B15E"/>
<stop offset="1" stop-color="#CB9636"/>
</linearGradient>
<linearGradient id="paint20_linear_2025_1232" x1="28.0592" y1="55" x2="29.0314" y2="55" gradientUnits="userSpaceOnUse">
<stop stop-color="#D2B15E"/>
<stop offset="1" stop-color="#CB9636"/>
</linearGradient>
<linearGradient id="paint21_linear_2025_1232" x1="31.0238" y1="40.75" x2="40.2599" y2="40.75" gradientUnits="userSpaceOnUse">
<stop stop-color="#D2B15E"/>
<stop offset="1" stop-color="#CB9636"/>
</linearGradient>
<linearGradient id="paint22_linear_2025_1232" x1="28.0592" y1="33.625" x2="29.0314" y2="33.625" gradientUnits="userSpaceOnUse">
<stop stop-color="#D2B15E"/>
<stop offset="1" stop-color="#CB9636"/>
</linearGradient>
<linearGradient id="paint23_linear_2025_1232" x1="28.0592" y1="39.9583" x2="29.0314" y2="39.9583" gradientUnits="userSpaceOnUse">
<stop stop-color="#D2B15E"/>
<stop offset="1" stop-color="#CB9636"/>
</linearGradient>
<linearGradient id="paint24_linear_2025_1232" x1="28.0592" y1="36.7917" x2="29.0314" y2="36.7917" gradientUnits="userSpaceOnUse">
<stop stop-color="#D2B15E"/>
<stop offset="1" stop-color="#CB9636"/>
</linearGradient>
<linearGradient id="paint25_linear_2025_1232" x1="43.8932" y1="33.625" x2="44.8654" y2="33.625" gradientUnits="userSpaceOnUse">
<stop stop-color="#D2B15E"/>
<stop offset="1" stop-color="#CB9636"/>
</linearGradient>
<linearGradient id="paint26_linear_2025_1232" x1="43.8932" y1="39.9583" x2="44.8654" y2="39.9583" gradientUnits="userSpaceOnUse">
<stop stop-color="#D2B15E"/>
<stop offset="1" stop-color="#CB9636"/>
</linearGradient>
<linearGradient id="paint27_linear_2025_1232" x1="43.8932" y1="36.7917" x2="44.8654" y2="36.7917" gradientUnits="userSpaceOnUse">
<stop stop-color="#D2B15E"/>
<stop offset="1" stop-color="#CB9636"/>
</linearGradient>
<linearGradient id="paint28_linear_2025_1232" x1="22.7298" y1="48.6667" x2="47.3595" y2="48.6667" gradientUnits="userSpaceOnUse">
<stop stop-color="#D2B15E"/>
<stop offset="1" stop-color="#CB9636"/>
</linearGradient>
<linearGradient id="paint29_linear_2025_1232" x1="32.0043" y1="29.0834" x2="33.5436" y2="29.0834" gradientUnits="userSpaceOnUse">
<stop stop-color="#D2B15E"/>
<stop offset="1" stop-color="#CB9636"/>
</linearGradient>
<linearGradient id="paint30_linear_2025_1232" x1="35.1703" y1="29.0834" x2="36.7097" y2="29.0834" gradientUnits="userSpaceOnUse">
<stop stop-color="#D2B15E"/>
<stop offset="1" stop-color="#CB9636"/>
</linearGradient>
<linearGradient id="paint31_linear_2025_1232" x1="38.3373" y1="29.0834" x2="39.8767" y2="29.0834" gradientUnits="userSpaceOnUse">
<stop stop-color="#D2B15E"/>
<stop offset="1" stop-color="#CB9636"/>
</linearGradient>
<linearGradient id="paint32_linear_2025_1232" x1="32.0043" y1="44.9166" x2="33.5436" y2="44.9166" gradientUnits="userSpaceOnUse">
<stop stop-color="#D2B15E"/>
<stop offset="1" stop-color="#CB9636"/>
</linearGradient>
<linearGradient id="paint33_linear_2025_1232" x1="35.1703" y1="44.9166" x2="36.7097" y2="44.9166" gradientUnits="userSpaceOnUse">
<stop stop-color="#D2B15E"/>
<stop offset="1" stop-color="#CB9636"/>
</linearGradient>
<linearGradient id="paint34_linear_2025_1232" x1="38.3373" y1="44.9166" x2="39.8767" y2="44.9166" gradientUnits="userSpaceOnUse">
<stop stop-color="#D2B15E"/>
<stop offset="1" stop-color="#CB9636"/>
</linearGradient>
<clipPath id="clip0_2025_1232">
<rect width="38" height="38" fill="white" transform="translate(17 17)"/>
</clipPath>
</defs>
</svg>
