<svg width="32" height="33" viewBox="0 0 32 33" fill="none" xmlns="http://www.w3.org/2000/svg">
<g clip-path="url(#clip0_2025_855)">
<path d="M16 0.499996C20.2435 0.499996 24.3131 2.18571 27.3137 5.18629C30.3143 8.18687 32 12.2565 32 16.5C32 20.7435 30.3143 24.8131 27.3137 27.8137C24.3131 30.8143 20.2435 32.5 16 32.5C11.7565 32.5 7.68687 30.8143 4.68629 27.8137C1.68571 24.8131 1.40195e-07 20.7435 1.90798e-07 16.5C2.41401e-07 12.2565 1.68571 8.18687 4.68629 5.18629C7.68687 2.18571 11.7565 0.499996 16 0.499996ZM9 15.5C8.73478 15.5 8.48043 15.6054 8.29289 15.7929C8.10536 15.9804 8 16.2348 8 16.5C8 16.7652 8.10536 17.0196 8.29289 17.2071C8.48043 17.3946 8.73478 17.5 9 17.5L20.586 17.5L16.292 21.792C16.1042 21.9798 15.9987 22.2344 15.9987 22.5C15.9987 22.7656 16.1042 23.0202 16.292 23.208C16.4798 23.3958 16.7344 23.5013 17 23.5013C17.2656 23.5013 17.5202 23.3958 17.708 23.208L23.708 17.208C23.8011 17.1151 23.875 17.0048 23.9254 16.8833C23.9758 16.7618 24.0018 16.6315 24.0018 16.5C24.0018 16.3685 23.9758 16.2382 23.9254 16.1167C23.875 15.9952 23.8011 15.8849 23.708 15.792L17.708 9.792C17.5202 9.60422 17.2656 9.49874 17 9.49874C16.7344 9.49874 16.4798 9.60422 16.292 9.792C16.1042 9.97977 15.9987 10.2344 15.9987 10.5C15.9987 10.7655 16.1042 11.0202 16.292 11.208L20.586 15.5L9 15.5Z" fill="url(#paint0_linear_2025_855)"/>
</g>
<defs>
<linearGradient id="paint0_linear_2025_855" x1="1.90798e-07" y1="16.5" x2="32" y2="16.5" gradientUnits="userSpaceOnUse">
<stop offset="0.0104167" stop-color="#CFA750"/>
<stop offset="0.296875" stop-color="#D2B15E"/>
<stop offset="0.46875" stop-color="#D0AB55"/>
<stop offset="0.651042" stop-color="#D1AD58"/>
<stop offset="1" stop-color="#CFA64D"/>
</linearGradient>
<clipPath id="clip0_2025_855">
<rect width="32" height="32" fill="white" transform="translate(0 32.5) rotate(-90)"/>
</clipPath>
</defs>
</svg>
