<svg width="32" height="33" viewBox="0 0 32 33" fill="none" xmlns="http://www.w3.org/2000/svg">
<g clip-path="url(#clip0_2025_832)">
<path d="M16 32.5C11.7565 32.5 7.68687 30.8143 4.68629 27.8137C1.68571 24.8131 -8.8487e-07 20.7435 -6.99382e-07 16.5C-5.13895e-07 12.2565 1.68571 8.18687 4.68629 5.18629C7.68687 2.18571 11.7565 0.499999 16 0.499999C20.2435 0.499999 24.3131 2.18571 27.3137 5.18629C30.3143 8.18687 32 12.2565 32 16.5C32 20.7435 30.3143 24.8131 27.3137 27.8137C24.3131 30.8143 20.2435 32.5 16 32.5ZM23 17.5C23.2652 17.5 23.5196 17.3946 23.7071 17.2071C23.8946 17.0196 24 16.7652 24 16.5C24 16.2348 23.8946 15.9804 23.7071 15.7929C23.5196 15.6054 23.2652 15.5 23 15.5L11.414 15.5L15.708 11.208C15.8958 11.0202 16.0013 10.7656 16.0013 10.5C16.0013 10.2344 15.8958 9.97977 15.708 9.792C15.5202 9.60423 15.2656 9.49874 15 9.49874C14.7344 9.49874 14.4798 9.60423 14.292 9.792L8.292 15.792C8.19887 15.8849 8.12499 15.9952 8.07457 16.1167C8.02416 16.2382 7.99821 16.3685 7.99821 16.5C7.99821 16.6315 8.02416 16.7618 8.07457 16.8833C8.12499 17.0048 8.19887 17.1151 8.292 17.208L14.292 23.208C14.4798 23.3958 14.7344 23.5013 15 23.5013C15.2655 23.5013 15.5202 23.3958 15.708 23.208C15.8958 23.0202 16.0013 22.7656 16.0013 22.5C16.0013 22.2345 15.8958 21.9798 15.708 21.792L11.414 17.5L23 17.5Z" fill="url(#paint0_linear_2025_832)"/>
</g>
<defs>
<linearGradient id="paint0_linear_2025_832" x1="32" y1="16.5" x2="-6.99382e-07" y2="16.5" gradientUnits="userSpaceOnUse">
<stop offset="0.0104167" stop-color="#CFA750"/>
<stop offset="0.296875" stop-color="#D2B15E"/>
<stop offset="0.46875" stop-color="#D0AB55"/>
<stop offset="0.651042" stop-color="#D1AD58"/>
<stop offset="1" stop-color="#CFA64D"/>
</linearGradient>
<clipPath id="clip0_2025_832">
<rect width="32" height="32" fill="white" transform="translate(32 0.5) rotate(90)"/>
</clipPath>
</defs>
</svg>
