<svg width="253" height="52" viewBox="0 0 253 52" fill="none" xmlns="http://www.w3.org/2000/svg">
<path d="M61.2835 37.2062C61.4423 37.0513 61.6282 36.931 61.8441 36.8463C62.059 36.7617 62.2972 36.7193 62.5567 36.7193C62.8161 36.7193 63.0582 36.7674 63.2799 36.8637C63.5026 36.9599 63.703 37.1052 63.8831 37.2977L64.4795 36.7405C64.2481 36.4681 63.9634 36.2622 63.6284 36.1236C63.2925 35.9851 62.9217 35.9158 62.515 35.9158C62.1316 35.9158 61.7792 35.9783 61.4578 36.1025C61.1364 36.2276 60.8546 36.4037 60.6135 36.6317C60.3725 36.8598 60.1856 37.1283 60.053 37.4391C59.9203 37.75 59.8545 38.0877 59.8545 38.4544C59.8545 38.821 59.9203 39.1598 60.053 39.4696C60.1856 39.7805 60.3705 40.0489 60.6097 40.277C60.8488 40.5051 61.1296 40.6812 61.4539 40.8063C61.7783 40.9304 62.1287 40.993 62.5073 40.993C62.9188 40.993 63.2925 40.9227 63.6284 40.7813C63.9644 40.6398 64.2481 40.4358 64.4795 40.1673L63.8831 39.6034C63.703 39.8007 63.5026 39.9479 63.2799 40.0441C63.0572 40.1404 62.8161 40.1885 62.5567 40.1885C62.2972 40.1885 62.059 40.1461 61.8441 40.0615C61.6282 39.9768 61.4423 39.8574 61.2835 39.7015C61.1247 39.5466 61.0018 39.3628 60.9146 39.1521C60.8275 38.9403 60.783 38.7075 60.783 38.4544C60.783 38.2013 60.8265 37.9674 60.9146 37.7567C61.0018 37.545 61.1247 37.3612 61.2835 37.2062Z" fill="#F1F2F2"/>
<path d="M68.4161 38.7932H70.8143V38.0387H68.4161V36.755H71.1192V35.9861H67.4944V40.9218H71.218V40.1539H68.4161V38.7932Z" fill="#F1F2F2"/>
<path d="M77.5499 39.2763C77.8646 39.1377 78.1066 38.9375 78.277 38.6767C78.4474 38.4159 78.5326 38.1042 78.5326 37.7423C78.5326 37.3805 78.4474 37.0677 78.277 36.8041C78.1066 36.5404 77.8646 36.3383 77.5499 36.1978C77.2352 36.0563 76.8576 35.9861 76.4181 35.9861H74.3752V40.9218H75.2979V39.4832H76.4191C76.4859 39.4832 76.542 39.4706 76.6059 39.4678L77.6254 40.9218H78.6188L77.4744 39.2984C77.4986 39.2888 77.5276 39.2859 77.5509 39.2753L77.5499 39.2763ZM77.2943 37.0167C77.4995 37.1861 77.6031 37.4276 77.6031 37.7433C77.6031 38.0589 77.5005 38.2957 77.2943 38.4698C77.089 38.644 76.7821 38.7306 76.3755 38.7306H75.2969V36.7636H76.3755C76.7821 36.7636 77.089 36.8483 77.2943 37.0177V37.0167Z" fill="#F1F2F2"/>
<path d="M80.9802 36.7617H82.6252V40.9218H83.5478V36.7617H85.1937V35.9861H80.9802V36.7617Z" fill="#F1F2F2"/>
<path d="M88.9395 35.9861H88.0168V40.9218H88.9395V35.9861Z" fill="#F1F2F2"/>
<path d="M92.4075 40.9218H93.3301V39.0328H95.7273V38.2572H93.3301V36.755H96.0323V35.9861H92.4075V40.9218Z" fill="#F1F2F2"/>
<path d="M99.9776 35.9861H99.0549V40.9218H99.9776V35.9861Z" fill="#F1F2F2"/>
<path d="M104.368 38.7932H106.765V38.0387H104.368V36.755H107.07V35.9861H103.446V40.9218H107.17V40.1539H104.368V38.7932Z" fill="#F1F2F2"/>
<path d="M113.916 36.2969C113.51 36.09 113.036 35.9861 112.498 35.9861H110.327V40.9218H112.498C113.037 40.9218 113.51 40.8189 113.916 40.611C114.323 40.4041 114.64 40.1164 114.867 39.7478C115.094 39.3783 115.208 38.9471 115.208 38.4535C115.208 37.9598 115.095 37.5229 114.867 37.1563C114.64 36.7896 114.323 36.5029 113.916 36.296V36.2969ZM114.055 39.3427C113.906 39.5967 113.696 39.794 113.424 39.9345C113.152 40.076 112.829 40.1462 112.455 40.1462H111.249V36.7617H112.455C112.829 36.7617 113.152 36.832 113.424 36.9734C113.696 37.1149 113.906 37.3102 114.055 37.5624C114.204 37.8135 114.279 38.1109 114.279 38.4544C114.279 38.798 114.204 39.0886 114.055 39.3427Z" fill="#F1F2F2"/>
<path d="M125.575 36.1978C125.261 36.0563 124.883 35.9861 124.443 35.9861H122.401V40.9218H123.323V39.4976H124.444C124.884 39.4976 125.262 39.4273 125.576 39.2859C125.891 39.1454 126.133 38.9433 126.303 38.6796C126.474 38.4159 126.559 38.1032 126.559 37.7414C126.559 37.3795 126.474 37.0668 126.303 36.8031C126.133 36.5394 125.891 36.3373 125.576 36.1968L125.575 36.1978ZM125.32 38.4641C125.114 38.6363 124.808 38.722 124.401 38.722H123.322V36.7617H124.401C124.808 36.7617 125.114 36.8464 125.32 37.0158C125.525 37.1851 125.629 37.4267 125.629 37.7423C125.629 38.058 125.526 38.2937 125.32 38.465V38.4641Z" fill="#F1F2F2"/>
<path d="M133.006 38.7364C133.006 39.2435 132.898 39.6131 132.68 39.8431C132.462 40.0731 132.152 40.1885 131.75 40.1885C131.349 40.1885 131.037 40.0731 130.817 39.8431C130.597 39.6131 130.487 39.2435 130.487 38.7364V35.9861H129.564V38.771C129.564 39.4899 129.757 40.0403 130.142 40.4214C130.528 40.8025 131.061 40.993 131.742 40.993C132.422 40.993 132.949 40.8025 133.334 40.4214C133.72 40.0403 133.912 39.4909 133.912 38.771V35.9861H133.004V38.7364H133.006Z" fill="#F1F2F2"/>
<path d="M141.022 38.4227C140.961 38.3957 140.895 38.3813 140.831 38.3621C141.027 38.262 141.186 38.1234 141.305 37.9434C141.428 37.7577 141.489 37.5335 141.489 37.2698C141.489 36.8801 141.333 36.5683 141.021 36.3354C140.709 36.1025 140.255 35.9861 139.658 35.9861H137.332V40.9218H139.801C140.444 40.9218 140.929 40.8044 141.255 40.5696C141.581 40.3348 141.745 40.0057 141.745 39.5823C141.745 39.2955 141.68 39.0559 141.549 38.8634C141.419 38.671 141.243 38.5237 141.021 38.4227H141.022ZM139.561 36.7059C139.882 36.7059 140.129 36.7627 140.302 36.8753C140.474 36.9879 140.561 37.1601 140.561 37.3901C140.561 37.6201 140.474 37.7856 140.302 37.8982C140.129 38.0108 139.882 38.0676 139.561 38.0676H138.255V36.7069H139.561V36.7059ZM140.539 40.0346C140.355 40.1472 140.09 40.2039 139.745 40.2039H138.255V38.7797H139.745C140.09 38.7797 140.355 38.8374 140.539 38.9529C140.723 39.0684 140.816 39.2484 140.816 39.4918C140.816 39.7353 140.724 39.922 140.539 40.0346Z" fill="#F1F2F2"/>
<path d="M145.782 35.9861H144.859V40.9218H148.379V40.1462H145.782V35.9861Z" fill="#F1F2F2"/>
<path d="M152.159 35.9861H151.237V40.9218H152.159V35.9861Z" fill="#F1F2F2"/>
<path d="M156.703 37.2062C156.862 37.0513 157.048 36.931 157.264 36.8463C157.479 36.7617 157.717 36.7193 157.976 36.7193C158.236 36.7193 158.478 36.7674 158.7 36.8637C158.922 36.9599 159.123 37.1052 159.303 37.2977L159.899 36.7405C159.668 36.4681 159.383 36.2622 159.048 36.1236C158.712 35.9851 158.341 35.9158 157.935 35.9158C157.551 35.9158 157.199 35.9783 156.877 36.1025C156.556 36.2276 156.274 36.4037 156.033 36.6317C155.792 36.8598 155.605 37.1283 155.473 37.4391C155.34 37.75 155.274 38.0877 155.274 38.4544C155.274 38.821 155.34 39.1598 155.473 39.4696C155.605 39.7805 155.79 40.0489 156.029 40.277C156.268 40.5051 156.549 40.6812 156.874 40.8063C157.198 40.9304 157.548 40.993 157.927 40.993C158.338 40.993 158.712 40.9227 159.048 40.7813C159.384 40.6398 159.668 40.4358 159.899 40.1673L159.303 39.6034C159.123 39.8007 158.922 39.9479 158.7 40.0441C158.477 40.1404 158.236 40.1885 157.976 40.1885C157.717 40.1885 157.479 40.1461 157.264 40.0615C157.048 39.9768 156.862 39.8574 156.703 39.7015C156.544 39.5466 156.421 39.3628 156.334 39.1521C156.247 38.9403 156.203 38.7075 156.203 38.4544C156.203 38.2013 156.246 37.9674 156.334 37.7567C156.421 37.545 156.544 37.3612 156.703 37.2062Z" fill="#F1F2F2"/>
<path d="M168.531 35.9861L166.297 40.9218H167.248L167.739 39.7796H170.223L170.717 40.9218H171.682L169.441 35.9861H168.532H168.531ZM168.049 39.0607L168.979 36.9012L169.912 39.0607H168.049Z" fill="#F1F2F2"/>
<path d="M175.445 37.2062C175.604 37.0513 175.79 36.931 176.006 36.8463C176.221 36.7617 176.459 36.7193 176.718 36.7193C176.978 36.7193 177.22 36.7674 177.442 36.8637C177.664 36.9599 177.865 37.1052 178.045 37.2977L178.641 36.7405C178.41 36.4681 178.125 36.2622 177.79 36.1236C177.454 35.9851 177.083 35.9158 176.677 35.9158C176.293 35.9158 175.941 35.9783 175.619 36.1025C175.298 36.2276 175.016 36.4037 174.775 36.6317C174.534 36.8598 174.347 37.1283 174.215 37.4391C174.082 37.75 174.016 38.0877 174.016 38.4544C174.016 38.821 174.082 39.1598 174.215 39.4696C174.347 39.7805 174.532 40.0489 174.771 40.277C175.01 40.5051 175.291 40.6812 175.616 40.8063C175.94 40.9304 176.29 40.993 176.669 40.993C177.08 40.993 177.454 40.9227 177.79 40.7813C178.126 40.6398 178.41 40.4358 178.641 40.1673L178.045 39.6034C177.865 39.8007 177.664 39.9479 177.442 40.0441C177.219 40.1404 176.978 40.1885 176.718 40.1885C176.459 40.1885 176.221 40.1461 176.006 40.0615C175.79 39.9768 175.604 39.8574 175.445 39.7015C175.286 39.5466 175.163 39.3628 175.076 39.1521C174.989 38.9403 174.945 38.7075 174.945 38.4544C174.945 38.2013 174.988 37.9674 175.076 37.7567C175.163 37.545 175.286 37.3612 175.445 37.2062Z" fill="#F1F2F2"/>
<path d="M182.624 37.2062C182.783 37.0513 182.969 36.931 183.185 36.8463C183.4 36.7617 183.638 36.7193 183.897 36.7193C184.157 36.7193 184.399 36.7674 184.62 36.8637C184.843 36.9599 185.044 37.1052 185.224 37.2977L185.82 36.7405C185.589 36.4681 185.304 36.2622 184.969 36.1236C184.633 35.9851 184.262 35.9158 183.856 35.9158C183.472 35.9158 183.12 35.9783 182.798 36.1025C182.477 36.2276 182.195 36.4037 181.954 36.6317C181.713 36.8598 181.526 37.1283 181.394 37.4391C181.261 37.75 181.195 38.0877 181.195 38.4544C181.195 38.821 181.261 39.1598 181.394 39.4696C181.526 39.7805 181.711 40.0489 181.95 40.277C182.189 40.5051 182.47 40.6812 182.794 40.8063C183.119 40.9304 183.469 40.993 183.848 40.993C184.259 40.993 184.633 40.9227 184.969 40.7813C185.305 40.6398 185.589 40.4358 185.82 40.1673L185.224 39.6034C185.044 39.8007 184.843 39.9479 184.62 40.0441C184.398 40.1404 184.157 40.1885 183.897 40.1885C183.638 40.1885 183.4 40.1461 183.185 40.0615C182.969 39.9768 182.783 39.8574 182.624 39.7015C182.465 39.5466 182.342 39.3628 182.255 39.1521C182.168 38.9403 182.124 38.7075 182.124 38.4544C182.124 38.2013 182.167 37.9674 182.255 37.7567C182.342 37.545 182.465 37.3612 182.624 37.2062Z" fill="#F1F2F2"/>
<path d="M192.963 36.6385C192.722 36.4104 192.439 36.2333 192.115 36.1063C191.791 35.9793 191.435 35.9158 191.047 35.9158C190.659 35.9158 190.309 35.9793 189.983 36.1063C189.657 36.2333 189.373 36.4104 189.132 36.6385C188.891 36.8665 188.704 37.1341 188.572 37.442C188.439 37.75 188.373 38.0868 188.373 38.4534C188.373 38.8201 188.439 39.1569 188.572 39.4648C188.704 39.7728 188.891 40.0403 189.132 40.2684C189.373 40.4964 189.657 40.6735 189.983 40.8005C190.309 40.9275 190.667 40.9911 191.054 40.9911C191.441 40.9911 191.791 40.9275 192.114 40.8005C192.437 40.6735 192.721 40.4974 192.962 40.2712C193.203 40.0461 193.39 39.7776 193.523 39.4677C193.655 39.1578 193.721 38.8191 193.721 38.4524C193.721 38.0858 193.655 37.748 193.523 37.4411C193.39 37.1331 193.203 36.8646 192.962 36.6375L192.963 36.6385ZM192.662 39.1482C192.575 39.357 192.453 39.5408 192.297 39.6987C192.141 39.8565 191.956 39.9768 191.743 40.0615C191.53 40.1461 191.299 40.1885 191.048 40.1885C190.797 40.1885 190.566 40.1461 190.353 40.0615C190.14 39.9768 189.956 39.8555 189.799 39.6987C189.643 39.5408 189.521 39.357 189.434 39.1453C189.347 38.9336 189.302 38.7036 189.302 38.4544C189.302 38.2051 189.346 37.9684 189.434 37.7596C189.521 37.5508 189.644 37.367 189.803 37.2101C189.962 37.0523 190.146 36.931 190.357 36.8473C190.567 36.7626 190.797 36.7203 191.048 36.7203C191.299 36.7203 191.53 36.7626 191.743 36.8473C191.956 36.932 192.14 37.0523 192.297 37.2101C192.453 37.3679 192.575 37.5508 192.662 37.7596C192.749 37.9684 192.794 38.2003 192.794 38.4544C192.794 38.7084 192.75 38.9394 192.662 39.1492V39.1482Z" fill="#F1F2F2"/>
<path d="M200.228 38.7364C200.228 39.2435 200.119 39.6131 199.901 39.8431C199.683 40.0731 199.374 40.1885 198.972 40.1885C198.57 40.1885 198.258 40.0731 198.038 39.8431C197.819 39.6131 197.708 39.2435 197.708 38.7364V35.9861H196.786V38.771C196.786 39.4899 196.978 40.0403 197.364 40.4214C197.749 40.8025 198.282 40.993 198.963 40.993C199.644 40.993 200.17 40.8025 200.556 40.4214C200.941 40.0403 201.134 39.4909 201.134 38.771V35.9861H200.226V38.7364H200.228Z" fill="#F1F2F2"/>
<path d="M208.052 39.3282L205.313 35.9861H204.554V40.9218H205.469V37.5806L208.208 40.9218H208.967V35.9861H208.052V39.3282Z" fill="#F1F2F2"/>
<path d="M211.791 36.7617H213.436V40.9218H214.358V36.7617H216.004V35.9861H211.791V36.7617Z" fill="#F1F2F2"/>
<path d="M220.111 35.9861L217.876 40.9218H218.827L219.319 39.7796H221.802L222.296 40.9218H223.261L221.02 35.9861H220.112H220.111ZM219.629 39.0607L220.558 36.9012L221.492 39.0607H219.629Z" fill="#F1F2F2"/>
<path d="M229.518 39.3282L226.78 35.9861H226.021V40.9218H226.936V37.5806L229.674 40.9218H230.433V35.9861H229.518V39.3282Z" fill="#F1F2F2"/>
<path d="M233.257 36.7617H234.903V40.9218H235.824V36.7617H237.47V35.9861H233.257V36.7617Z" fill="#F1F2F2"/>
<path d="M243.631 38.8845C243.524 38.7152 243.385 38.5814 243.213 38.4823C243.039 38.3832 242.849 38.3033 242.637 38.2427C242.427 38.1811 242.215 38.1262 242.002 38.0771C241.789 38.0281 241.597 37.9771 241.424 37.9251C241.251 37.8731 241.112 37.8019 241.005 37.7095C240.899 37.6181 240.845 37.4969 240.845 37.3467C240.845 37.2197 240.882 37.1071 240.956 37.008C241.028 36.9089 241.145 36.829 241.303 36.7684C241.462 36.7078 241.668 36.677 241.924 36.677C242.142 36.677 242.368 36.7087 242.605 36.7722C242.841 36.8358 243.07 36.9329 243.293 37.0648L243.584 36.3527C243.367 36.2112 243.112 36.1034 242.819 36.0284C242.525 35.9533 242.23 35.9158 241.932 35.9158C241.478 35.9158 241.103 35.9831 240.808 36.1169C240.512 36.2507 240.292 36.4297 240.148 36.6529C240.004 36.8762 239.931 37.1216 239.931 37.39C239.931 37.6585 239.986 37.8693 240.095 38.0387C240.204 38.208 240.345 38.3427 240.517 38.4438C240.691 38.5448 240.881 38.6266 241.092 38.6901C241.302 38.7537 241.513 38.8085 241.724 38.8557C241.934 38.9028 242.125 38.9529 242.299 39.0077C242.471 39.0616 242.612 39.1347 242.721 39.2262C242.83 39.3176 242.884 39.4388 242.884 39.589C242.884 39.7112 242.847 39.8209 242.771 39.9171C242.696 40.0133 242.577 40.0903 242.417 40.1461C242.256 40.2029 242.045 40.2308 241.786 40.2308C241.479 40.2308 241.178 40.1789 240.884 40.0759C240.591 39.972 240.345 39.843 240.146 39.6881L239.827 40.4002C240.035 40.5744 240.317 40.7168 240.671 40.8265C241.026 40.9372 241.397 40.992 241.785 40.992C242.239 40.992 242.614 40.9247 242.912 40.7909C243.21 40.6571 243.431 40.4781 243.576 40.2549C243.72 40.0316 243.793 39.7882 243.793 39.5254C243.793 39.2627 243.739 39.0529 243.633 38.8836L243.631 38.8845Z" fill="#F1F2F2"/>
<path d="M52.1315 15.8109L41.2414 6.08762C41.0158 5.8865 40.4359 5.72387 40.2335 5.94809L40.2219 5.99235C40.128 6.08185 40.0622 6.21272 40.0292 6.32532C39.9518 6.59188 39.9218 6.88635 39.9286 7.16254C39.9353 7.42621 39.9818 7.68893 40.0689 7.93817C40.1096 8.05461 40.1619 8.16912 40.2161 8.27979C40.2442 8.33753 40.2732 8.39431 40.3042 8.45012C38.2614 10.2583 34.5329 14.175 33.4505 19.4418C33.4292 19.5447 33.3808 19.6419 33.3062 19.717C32.1435 20.8968 30.5721 21.6224 28.932 21.7157C26.3838 21.862 23.8094 21.7667 21.2776 21.4357L20.3627 21.3164C19.8282 21.248 19.3035 21.2875 18.7981 21.4059C18.7081 21.427 18.6151 21.4251 18.527 21.4001C17.6673 21.1557 15.2226 20.6639 13.1343 22.194C11.895 23.1015 11.1166 24.4805 10.6625 25.9191C10.374 26.8324 10.2055 27.7812 10.1116 28.733C10.0584 29.2738 10.0129 29.8252 10.0187 30.3699C10.0226 30.7413 9.97414 31.1109 9.97511 31.4823C9.97511 31.7498 10.0119 32.0164 10.0187 32.2839C10.0245 32.5303 9.96446 32.8046 10.0593 33.0394C10.2307 33.4666 11.1921 32.4879 11.2918 32.3359C11.7004 31.7162 11.7691 30.953 11.7895 30.2323C11.8088 29.5163 11.8505 28.8157 11.9502 28.1065C12.1119 26.9517 12.4081 25.7796 13.0229 24.7759C13.3105 24.3053 13.6735 23.8771 14.1199 23.547C14.3687 23.3632 14.6282 23.2208 14.8896 23.113C15.3775 22.9109 15.849 23.4296 15.5828 23.8838C15.5441 23.9502 15.5063 24.0186 15.4685 24.0869C15.0106 24.9424 14.7008 25.9557 14.5226 27.1875C13.9979 30.7952 14.6708 34.3866 15.3214 37.8616C15.6138 39.4244 15.6525 39.4609 15.8113 40.9708C15.819 41.0719 15.821 41.171 15.788 41.2691C15.7474 41.3875 15.6767 41.4962 15.6147 41.605L15.5479 41.7224C15.4995 41.7801 15.4511 41.8398 15.4095 41.9216C15.3688 42.0015 15.3679 42.1189 15.4463 42.1622C15.4763 42.1785 15.5121 42.1805 15.546 42.1824C15.5625 42.1824 16.64 42.2315 16.8782 42.2161C16.9373 42.2122 17.5259 42.2141 17.6411 42.1015C17.707 42.0371 17.7021 41.9322 17.6915 41.8408C17.6741 41.6858 17.6576 41.5309 17.6402 41.3769C17.5985 41.0016 17.4911 40.6455 17.4494 40.2731C17.4126 39.9421 17.3749 39.611 17.3352 39.28C17.2297 38.4043 17.1367 38.4226 16.9741 37.5555C16.7185 36.19 16.46 34.8052 16.277 33.4176C16.2266 33.0384 16.581 32.7276 16.9537 32.8228C17.8173 33.0442 18.8697 33.2318 19.956 33.2318C19.9628 33.2318 19.9696 33.2318 19.9764 33.2318C19.9764 33.2318 24.309 41.0468 24.3361 41.3018C24.3622 41.5444 24.2238 41.8167 24.3167 42.0361C24.4193 42.2786 26.6558 42.1958 26.7585 42.0419C26.8843 41.8513 26.6984 41.6165 26.6045 41.4568C26.4564 41.2037 22.0647 33.6081 22.0647 33.6081C21.9166 33.3146 22.0628 32.9614 22.3745 32.8536C22.7057 32.7382 23.029 32.5928 23.3389 32.4119C23.7803 32.1531 24.1676 31.8316 24.5065 31.4592C24.6565 31.2937 24.8821 31.2225 25.0951 31.2956C26.6181 31.8182 29.7976 32.5149 35.1922 33.2511C35.687 33.3184 36.1662 33.3521 36.63 33.3521C36.7694 33.3521 36.9078 33.3483 37.0434 33.3406C37.3184 33.3261 37.5575 33.5282 37.6011 33.7986L38.7774 40.3655L38.8374 40.7427C38.8374 40.7427 38.9004 41.4067 38.9246 41.5309C38.9497 41.6627 38.9468 41.7859 38.912 41.9158C38.8858 42.013 38.8268 42.1651 38.8791 42.2622C38.9226 42.3431 39.0669 42.3614 39.1511 42.345C39.6458 42.3431 40.1416 42.3412 40.6363 42.3431C40.7321 42.3431 41.1427 42.3479 41.2259 42.3181C41.375 42.2632 41.3595 42.0842 41.3072 41.9505C41.2036 41.6877 40.9994 41.4905 40.8435 41.2614C40.8435 41.2614 40.7922 41.1787 40.7079 41.0439C40.7041 41.0343 40.7012 41.0247 40.6973 41.0151C40.6218 40.8197 40.5511 40.6225 40.4862 40.4223L39.2382 33.407C39.1966 33.15 39.3477 32.9085 39.5907 32.8113C40.3555 32.5043 41.0429 32.0674 41.6451 31.5102L41.6393 31.5574L44.7627 31.925C45.1412 31.9693 45.36 32.3754 45.1867 32.7131L43.1652 36.6663L42.9435 37.1004C42.9134 37.1321 42.8825 37.1629 42.8524 37.1937C42.7527 37.2957 42.6559 37.4006 42.5562 37.5016C42.471 37.5873 42.3964 37.6547 42.2851 37.6777C42.2377 37.6874 42.2096 37.7182 42.1902 37.7538C42.1863 37.7595 42.1834 37.7682 42.1805 37.7759C42.1747 37.7923 42.1709 37.8067 42.1699 37.8231C42.1699 37.8298 42.166 37.8336 42.166 37.8413C42.167 38.0819 42.8273 39.2223 43.1013 39.5013C43.4547 39.8622 43.6144 39.4446 43.7732 39.1424C43.8797 38.9403 43.9862 38.7373 44.0917 38.5352C44.2224 38.2859 44.4809 37.7846 44.479 37.7826L47.7776 31.3332C47.9499 30.9954 47.7321 30.5893 47.3535 30.545L43.6841 30.1139C43.3046 30.0696 43.0906 29.6664 43.263 29.3277C43.5999 28.6646 43.8739 27.9246 44.0762 27.1066C44.6232 24.8933 44.5196 22.425 43.7693 19.7709C43.719 19.5938 43.6744 19.4341 43.6357 19.2878C43.5418 18.9413 43.8042 18.6026 44.1653 18.6026H50.6056C50.7944 18.6026 50.9706 18.5054 51.0703 18.3466L52.2283 16.5057C52.3696 16.2815 52.328 15.988 52.1295 15.8119L52.1315 15.8109ZM35.4207 31.593C30.0512 30.8607 27.4042 30.2477 26.1485 29.8762C25.859 29.7906 25.6847 29.4903 25.7758 29.2035C25.9278 28.7282 26.041 28.2124 26.1146 27.6561C26.1553 27.352 25.921 27.0797 25.6141 27.0547L25.0303 27.0066C24.7446 26.9835 24.4823 27.1817 24.4445 27.4646C24.2151 29.1622 23.5577 30.34 22.4869 30.9694C20.5902 32.0857 17.7854 31.3784 16.4028 30.9136C16.186 30.8405 16.0388 30.6413 16.033 30.4132C16.0069 29.4114 16.0446 28.4144 16.1879 27.4271C16.3389 26.3897 16.5897 25.5544 16.9547 24.8721C17.6808 23.5172 18.8727 22.806 20.1381 22.9716C20.1613 22.9744 21.0607 23.0918 21.0607 23.0918C23.6951 23.4354 26.376 23.5326 29.0288 23.3834C30.1945 23.317 31.3302 22.9946 32.3623 22.4606C32.7195 22.2758 33.1474 22.5116 33.1629 22.9109C33.2801 25.8845 34.3393 28.8167 36.3327 31.67C36.0413 31.6584 35.7393 31.6353 35.4207 31.592V31.593ZM42.4439 26.7063C42.0237 28.4087 41.1165 30.264 39.216 31.1484C38.9371 31.2783 38.5954 31.1619 38.4695 30.8818C37.3145 28.3144 37.0628 25.9471 37.7453 23.8348C38.4492 21.6561 40.0079 20.1722 41.133 19.3388C41.4418 19.1098 41.8833 19.2608 41.9859 19.6304C42.0372 19.8151 42.0934 20.0124 42.1525 20.2222C42.8244 22.5943 42.9222 24.7759 42.4448 26.7054L42.4439 26.7063ZM43.6512 17.0003C43.4111 16.9878 43.1739 16.9619 42.9367 16.9426C42.5146 16.9089 42.0963 16.8993 41.6771 17.0408C41.101 17.2352 40.6034 17.6595 40.1115 18.0031C39.5655 18.3842 39.062 18.847 38.6002 19.3234C37.5033 20.4532 36.6387 21.8062 36.1517 23.3036C36.0926 23.4854 36.0394 23.6692 35.991 23.853C35.8429 24.4266 34.986 24.3592 34.9173 23.7703C34.8001 22.7733 34.805 21.7735 34.9308 20.7717C35.352 17.4411 37.0589 14.5917 38.759 12.4986C38.9555 12.2561 39.3167 12.232 39.549 12.4418C41.1243 13.8651 42.654 15.3394 44.206 16.7886C44.4616 17.0273 43.7596 17.0042 43.6512 16.9984V17.0003ZM47.1773 14.1519L46.4734 15.6579C46.3147 15.9966 45.8683 16.0813 45.5972 15.8225C44.661 14.9285 43.3985 13.7285 42.2725 12.6766C41.9937 12.4158 41.7177 12.1464 41.4302 11.8952C41.1301 11.6335 40.798 11.4073 40.5191 11.1215C40.4136 11.0128 40.2374 10.7943 40.3933 10.6567C40.5966 10.4768 40.7941 10.291 40.9916 10.1053C41.2395 9.87243 41.4922 9.64436 41.7497 9.42303C41.9579 9.24404 42.2667 9.24981 42.471 9.43361L47.0447 13.5177C47.2238 13.6775 47.277 13.9354 47.1754 14.1528L47.1773 14.1519ZM50.1012 16.7694C50.0644 16.8271 50.016 16.8666 49.9608 16.8945C49.8011 16.9734 49.6035 16.9397 49.4312 16.9388C49.1514 16.9359 48.8706 16.933 48.5908 16.933C48.19 16.933 47.9247 16.5202 48.0932 16.1583L48.343 15.6242C48.4979 15.2922 48.9326 15.2037 49.2066 15.4481C49.3499 15.5761 49.4941 15.7051 49.6374 15.8331C49.7962 15.9745 50.3045 16.2594 50.2619 16.4807C50.2425 16.5779 50.1525 16.6886 50.1002 16.7704L50.1012 16.7694Z" fill="#F1F2F2"/>
<path d="M72.3683 15.0285C72.3683 14.888 72.4148 14.7677 72.5087 14.6667C72.6026 14.5657 72.7275 14.5146 72.8844 14.5146H74.0694C74.2098 14.5146 74.3395 14.5608 74.4567 14.6542C74.5738 14.7475 74.6329 14.8717 74.6329 15.0276V31.3206C74.6329 31.6632 74.4451 31.8335 74.0694 31.8335H72.8844C72.5397 31.8335 72.3683 31.6623 72.3683 31.3206V23.8328H62.4765V31.3206C62.4765 31.6632 62.2887 31.8335 61.913 31.8335H60.728C60.3833 31.8335 60.2119 31.6623 60.2119 31.3206V15.0285C60.2119 14.888 60.2584 14.7677 60.3523 14.6667C60.4462 14.5657 60.5711 14.5146 60.728 14.5146H61.9362C62.0766 14.5146 62.2025 14.5657 62.3119 14.6667C62.4213 14.7677 62.4765 14.888 62.4765 15.0285V21.5714H72.3683V15.0285Z" fill="#F1F2F2"/>
<path d="M78.5986 15.0285C78.5986 14.888 78.6432 14.7677 78.7332 14.6667C78.8233 14.5657 78.9501 14.5146 79.1147 14.5146H80.3346C80.475 14.5146 80.6008 14.5608 80.7102 14.6542C80.8196 14.7475 80.8748 14.8717 80.8748 15.0276V31.3206C80.8748 31.6632 80.6947 31.8335 80.3346 31.8335H79.1147C78.77 31.8335 78.5986 31.6623 78.5986 31.3206V15.0285Z" fill="#F1F2F2"/>
<path d="M96.6338 24.697C96.6338 24.3553 96.8061 24.1841 97.1498 24.1841H98.3581C98.4985 24.1841 98.6243 24.2293 98.7337 24.3178C98.8431 24.4073 98.8983 24.5334 98.8983 24.697V29.9108C98.8983 30.0042 98.879 30.0917 98.8393 30.1735C98.8005 30.2553 98.7337 30.3237 98.6398 30.3776L98.5459 30.4478C97.8101 30.9771 97.0007 31.3832 96.1168 31.6671C95.2328 31.951 94.2782 32.0924 93.2539 32.0924C92.4241 32.0924 91.6283 31.9875 90.8663 31.7777C90.1034 31.5679 89.3918 31.2687 88.7305 30.8799C88.0693 30.4911 87.4671 30.0263 86.9239 29.4864C86.3798 28.9456 85.9151 28.3471 85.5278 27.6898C85.1405 27.0325 84.8414 26.3252 84.6303 25.5669C84.4193 24.8086 84.3137 24.0176 84.3137 23.1938C84.3137 22.3701 84.4193 21.5925 84.6303 20.8381C84.8414 20.0836 85.1425 19.3763 85.5336 18.7152C85.9248 18.0541 86.3924 17.4517 86.9355 16.907C87.4787 16.3623 88.0819 15.8965 88.7422 15.5078C89.4034 15.119 90.115 14.8178 90.878 14.6041C91.6409 14.3905 92.4367 14.2837 93.2655 14.2837C94.2278 14.2837 95.1544 14.429 96.0461 14.7206C96.9378 15.0122 97.7714 15.4298 98.545 15.9745C98.6311 16.037 98.7018 16.1083 98.756 16.1901C98.8102 16.2718 98.8383 16.3556 98.8383 16.4412C98.8383 16.55 98.8073 16.6433 98.7444 16.7213L98.1228 17.748C97.9892 17.9347 97.8527 18.0281 97.7123 18.0281C97.6571 18.0281 97.5971 18.0146 97.5303 17.9877C97.4635 17.9607 97.387 17.9155 97.3018 17.8539C96.7383 17.4574 96.1264 17.1447 95.4652 16.9147C94.8039 16.6856 94.0981 16.5702 93.3468 16.5702C92.3767 16.5702 91.4792 16.753 90.6543 17.1187C89.8285 17.4844 89.113 17.9742 88.5069 18.5882C87.9008 19.2021 87.4254 19.9104 87.0808 20.711C86.7361 21.5117 86.5647 22.3479 86.5647 23.2188C86.5647 24.1446 86.7409 25.0088 87.0924 25.8142C87.4448 26.6187 87.9212 27.3183 88.5243 27.914C89.1265 28.5087 89.8285 28.9774 90.6301 29.319C91.4318 29.6616 92.2867 29.8319 93.1938 29.8319C93.7651 29.8319 94.3334 29.7405 94.9007 29.5577C95.4681 29.3748 96.0451 29.1593 96.6318 28.91V24.6999L96.6338 24.697Z" fill="#F1F2F2"/>
<path d="M114.587 15.0285C114.587 14.888 114.633 14.7677 114.727 14.6667C114.821 14.5657 114.946 14.5146 115.103 14.5146H116.288C116.428 14.5146 116.558 14.5608 116.675 14.6542C116.792 14.7475 116.851 14.8717 116.851 15.0276V31.3206C116.851 31.6632 116.663 31.8335 116.288 31.8335H115.103C114.758 31.8335 114.587 31.6623 114.587 31.3206V23.8328H104.695V31.3206C104.695 31.6632 104.507 31.8335 104.131 31.8335H102.946C102.602 31.8335 102.43 31.6623 102.43 31.3206V15.0285C102.43 14.888 102.477 14.7677 102.571 14.6667C102.664 14.5657 102.789 14.5146 102.946 14.5146H104.155C104.295 14.5146 104.421 14.5657 104.53 14.6667C104.64 14.7677 104.695 14.888 104.695 15.0285V21.5714H114.587V15.0285Z" fill="#F1F2F2"/>
<path d="M140.178 14.5156C140.539 14.5156 140.719 14.7023 140.719 15.0757V16.2305C140.719 16.3787 140.673 16.5067 140.584 16.6154C140.494 16.7241 140.351 16.779 140.156 16.779H130.698V21.5723H138.138C138.278 21.5723 138.4 21.6127 138.502 21.6945C138.603 21.7763 138.655 21.9139 138.655 22.1083V23.2978C138.655 23.4373 138.611 23.5624 138.526 23.6711C138.44 23.7799 138.311 23.8347 138.139 23.8347H130.699V29.5731H140.204C140.564 29.5731 140.743 29.7559 140.743 30.1216V31.3226C140.743 31.6651 140.571 31.8355 140.227 31.8355H128.939C128.594 31.8355 128.423 31.6719 128.423 31.3456V15.0516C128.423 14.6936 128.595 14.5146 128.939 14.5146H140.18L140.178 14.5156Z" fill="#F1F2F2"/>
<path d="M157.274 15.9736C157.361 16.0361 157.431 16.1073 157.486 16.1891C157.54 16.2709 157.568 16.3546 157.568 16.4403C157.568 16.549 157.537 16.6424 157.474 16.7203L156.852 17.7471C156.719 17.9338 156.582 18.0272 156.442 18.0272C156.387 18.0272 156.327 18.0137 156.26 17.9867C156.193 17.9598 156.117 17.9146 156.031 17.853C155.468 17.4565 154.875 17.1534 154.254 16.9436C153.632 16.7338 152.977 16.6097 152.288 16.5702C151.28 16.5702 150.348 16.7511 149.495 17.112C148.642 17.4738 147.905 17.9598 147.283 18.5699C146.661 19.18 146.174 19.8883 145.822 20.6928C145.469 21.4973 145.294 22.347 145.294 23.241C145.294 24.1899 145.474 25.0665 145.834 25.871C146.195 26.6755 146.678 27.3694 147.284 27.9525C147.89 28.5357 148.594 28.9909 149.396 29.3171C150.198 29.6433 151.041 29.8069 151.925 29.8069C152.246 29.8069 152.566 29.7838 152.888 29.7367C153.208 29.6905 153.535 29.6106 153.867 29.498C154.2 29.3854 154.546 29.2411 154.906 29.0669C155.266 28.8918 155.649 28.6762 156.056 28.4193C156.205 28.3336 156.327 28.2913 156.421 28.2913C156.561 28.2913 156.691 28.3885 156.808 28.5829L157.477 29.6789C157.531 29.78 157.559 29.8733 157.559 29.959C157.559 30.1457 157.465 30.2929 157.277 30.4026C156.542 30.9319 155.732 31.3457 154.848 31.645C153.964 31.9442 153.01 32.0944 151.985 32.0944C151.156 32.0944 150.36 31.9895 149.598 31.7797C148.835 31.5699 148.123 31.2706 147.462 30.8818C146.801 30.4931 146.199 30.0283 145.655 29.4884C145.111 28.9476 144.647 28.349 144.259 27.6917C143.872 27.0345 143.573 26.3272 143.362 25.5689C143.151 24.8106 143.045 24.0195 143.045 23.1958C143.045 22.372 143.151 21.5916 143.362 20.8342C143.573 20.0759 143.874 19.3667 144.265 18.7056C144.656 18.0445 145.124 17.4421 145.667 16.8974C146.21 16.3537 146.815 15.8889 147.48 15.5039C148.146 15.119 148.859 14.8197 149.622 14.6061C150.385 14.3925 151.181 14.2856 152.01 14.2856C152.987 14.2856 153.914 14.43 154.79 14.7168C155.666 15.0045 156.495 15.4241 157.277 15.9764L157.274 15.9736Z" fill="#F1F2F2"/>
<path d="M172.811 15.0285C172.811 14.888 172.857 14.7677 172.951 14.6667C173.045 14.5657 173.17 14.5146 173.327 14.5146H174.512C174.652 14.5146 174.782 14.5608 174.899 14.6542C175.016 14.7475 175.075 14.8717 175.075 15.0276V31.3206C175.075 31.6632 174.887 31.8335 174.512 31.8335H173.327C172.982 31.8335 172.811 31.6623 172.811 31.3206V23.8328H162.919V31.3206C162.919 31.6632 162.731 31.8335 162.355 31.8335H161.17C160.826 31.8335 160.654 31.6623 160.654 31.3206V15.0285C160.654 14.888 160.701 14.7677 160.795 14.6667C160.889 14.5657 161.013 14.5146 161.17 14.5146H162.379C162.519 14.5146 162.645 14.5657 162.754 14.6667C162.864 14.7677 162.919 14.888 162.919 15.0285V21.5714H172.811V15.0285Z" fill="#F1F2F2"/>
<path d="M190.81 14.5156C191.17 14.5156 191.351 14.7023 191.351 15.0757V16.2305C191.351 16.3787 191.305 16.5067 191.216 16.6154C191.126 16.7241 190.983 16.779 190.788 16.779H181.33V21.5723H188.769C188.91 21.5723 189.032 21.6127 189.133 21.6945C189.235 21.7763 189.286 21.9139 189.286 22.1083V23.2978C189.286 23.4373 189.243 23.5624 189.158 23.6711C189.071 23.7799 188.943 23.8347 188.77 23.8347H181.331V29.5731H190.835C191.196 29.5731 191.375 29.7559 191.375 30.1216V31.3226C191.375 31.6651 191.202 31.8355 190.859 31.8355H179.571C179.226 31.8355 179.055 31.6719 179.055 31.3456V15.0516C179.055 14.6936 179.227 14.5146 179.571 14.5146H190.812L190.81 14.5156Z" fill="#F1F2F2"/>
<path d="M204.867 29.5721C205.008 29.5721 205.13 29.6212 205.231 29.7184C205.333 29.8156 205.384 29.9503 205.384 30.1206V31.3216C205.384 31.4621 205.338 31.5824 205.244 31.6834C205.15 31.7845 205.025 31.8355 204.868 31.8355H194.894C194.549 31.8355 194.378 31.6642 194.378 31.3226V15.0285C194.378 14.888 194.424 14.7677 194.518 14.6667C194.612 14.5657 194.745 14.5146 194.917 14.5146H196.125C196.274 14.5146 196.398 14.558 196.495 14.6426C196.593 14.7283 196.642 14.8563 196.642 15.0276V29.5711H204.867V29.5721Z" fill="#F1F2F2"/>
<path d="M215.956 14.2817C216.777 14.2817 217.569 14.3866 218.331 14.5964C219.094 14.8062 219.806 15.1055 220.467 15.4943C221.129 15.883 221.733 16.3478 222.281 16.8877C222.828 17.4285 223.295 18.0309 223.683 18.6959C224.07 19.3609 224.371 20.074 224.586 20.8361C224.801 21.5983 224.908 22.3912 224.908 23.215C224.908 24.0387 224.803 24.8182 224.592 25.5765C224.381 26.3348 224.08 27.0421 223.688 27.6994C223.297 28.3567 222.83 28.9552 222.286 29.496C221.742 30.0369 221.138 30.4988 220.473 30.8837C219.808 31.2686 219.092 31.566 218.326 31.7758C217.559 31.9856 216.761 32.0905 215.932 32.0905C215.104 32.0905 214.307 31.9856 213.545 31.7758C212.782 31.566 212.07 31.2667 211.409 30.8779C210.748 30.4892 210.146 30.0244 209.602 29.4845C209.058 28.9437 208.594 28.3451 208.206 27.6878C207.819 27.0306 207.52 26.3233 207.309 25.565C207.098 24.8066 206.992 24.0156 206.992 23.1919C206.992 22.3681 207.098 21.5877 207.309 20.8303C207.52 20.073 207.821 19.3628 208.212 18.7017C208.603 18.0406 209.071 17.4382 209.614 16.8935C210.158 16.3498 210.762 15.885 211.427 15.5C212.093 15.1151 212.806 14.8158 213.569 14.6022C214.332 14.3886 215.128 14.2817 215.957 14.2817H215.956ZM209.244 23.1572C209.244 23.7712 209.325 24.3601 209.484 24.9241C209.645 25.488 209.87 26.0163 210.159 26.51C210.449 27.0036 210.796 27.453 211.204 27.8572C211.61 28.2614 212.063 28.6078 212.559 28.8955C213.056 29.1833 213.587 29.4065 214.155 29.5663C214.722 29.726 215.315 29.8059 215.932 29.8059C216.55 29.8059 217.133 29.726 217.704 29.5663C218.275 29.4075 218.807 29.1833 219.3 28.8955C219.792 28.6078 220.243 28.2623 220.649 27.8572C221.056 27.453 221.404 27.0036 221.694 26.51C221.983 26.0163 222.208 25.488 222.369 24.9241C222.529 24.3601 222.609 23.7712 222.609 23.1572C222.609 22.2401 222.433 21.3789 222.081 20.5744C221.729 19.7699 221.252 19.0683 220.649 18.4688C220.047 17.8702 219.341 17.3958 218.531 17.0455C217.722 16.6952 216.855 16.5211 215.931 16.5211C215.314 16.5211 214.721 16.6009 214.154 16.7597C213.586 16.9195 213.055 17.1427 212.558 17.4305C212.062 17.7182 211.609 18.0646 211.203 18.4688C210.796 18.873 210.448 19.3205 210.158 19.8103C209.869 20.3001 209.644 20.8294 209.483 21.3962C209.323 21.9639 209.243 22.551 209.243 23.1572H209.244Z" fill="#F1F2F2"/>
<path d="M241.336 31.8355C241.164 31.8355 241.016 31.7498 240.89 31.5785L230.646 17.9328V31.3216C230.646 31.6642 230.466 31.8345 230.107 31.8345H228.922C228.577 31.8345 228.406 31.6632 228.406 31.3216V15.0516C228.406 14.8957 228.452 14.7677 228.546 14.6667C228.64 14.5657 228.765 14.5146 228.922 14.5146H230.494C230.697 14.5146 230.862 14.6003 230.987 14.7716L240.972 27.9621V14.9467C241.019 14.659 241.191 14.5156 241.488 14.5156H242.674C242.814 14.5156 242.946 14.5618 243.067 14.6551C243.188 14.7485 243.249 14.8726 243.249 15.0285V31.3216C243.249 31.6642 243.057 31.8345 242.674 31.8345H241.336L241.336 31.8355Z" fill="#F1F2F2"/>
</svg>
